<?xml version="1.0" encoding="UTF-8" standalone="no"?>
<svg
   xmlns:dc="http://purl.org/dc/elements/1.1/"
   xmlns:cc="http://creativecommons.org/ns#"
   xmlns:rdf="http://www.w3.org/1999/02/22-rdf-syntax-ns#"
   xmlns:svg="http://www.w3.org/2000/svg"
   xmlns="http://www.w3.org/2000/svg"
   xmlns:sodipodi="http://sodipodi.sourceforge.net/DTD/sodipodi-0.dtd"
   xmlns:inkscape="http://www.inkscape.org/namespaces/inkscape"
   viewBox="0 0 512 512"
   version="1.1"
   id="svg4"
   sodipodi:docname="058-ticket.svg"
   inkscape:version="0.92.1 r15371">
  <metadata
     id="metadata10">
    <rdf:RDF>
      <cc:Work
         rdf:about="">
        <dc:format>image/svg+xml</dc:format>
        <dc:type
           rdf:resource="http://purl.org/dc/dcmitype/StillImage" />
        <dc:title></dc:title>
      </cc:Work>
    </rdf:RDF>
  </metadata>
  <defs
     id="defs8" />
  <sodipodi:namedview
     pagecolor="#ffffff"
     bordercolor="#666666"
     borderopacity="1"
     objecttolerance="10"
     gridtolerance="10"
     guidetolerance="10"
     inkscape:pageopacity="0"
     inkscape:pageshadow="2"
     inkscape:window-width="1916"
     inkscape:window-height="1023"
     id="namedview6"
     showgrid="false"
     inkscape:zoom="0.4609375"
     inkscape:cx="256"
     inkscape:cy="256"
     inkscape:window-x="0"
     inkscape:window-y="36"
     inkscape:window-maximized="0"
     inkscape:current-layer="svg4" />
  <path
     inkscape:connector-curvature="0"
     style="fill:#000000;stroke-width:24.0007515"
     d="m 288.66743,181.8305 48.00302,48.00001 -96.00599,96 -48.00301,-48 z m 159.58601,-8.424 -27.57773,-27.576 -12.00077,12 c -6.14438,6.14401 -14.64089,9.936 -24.00149,9.936 -18.74517,0 -33.9381,-15.192 -33.9381,-33.93599 0,-9.38401 3.79222,-17.856 9.96061,-24.00001 l 12.00074,-11.999986 -27.57772,-27.576 c -11.2327,-11.23201 -29.64185,-11.23201 -40.87455,0 L 81.102485,293.38251 c -11.23269,11.23199 -11.23269,29.63999 0,40.87201 l 27.577725,27.57599 11.97675,-11.976 c 6.14438,-6.14401 14.64091,-9.96002 24.02549,-9.96002 18.74518,0 33.93813,15.19202 33.93813,33.93602 0,9.38398 -3.79223,17.85599 -9.96062,24 l -12.00076,11.99998 27.57772,27.57601 c 11.2327,11.232 29.61786,11.232 40.87455,0 L 448.25344,214.27851 c 11.23269,-11.23201 11.23269,-29.64001 0,-40.87201 z m -207.58898,200.42401 -96.006,-96 144.00897,-144 96.00602,96 z"
     id="path299" />
</svg>
