<?xml version="1.0" encoding="UTF-8" standalone="no"?>
<svg
   xmlns:dc="http://purl.org/dc/elements/1.1/"
   xmlns:cc="http://creativecommons.org/ns#"
   xmlns:rdf="http://www.w3.org/1999/02/22-rdf-syntax-ns#"
   xmlns:svg="http://www.w3.org/2000/svg"
   xmlns="http://www.w3.org/2000/svg"
   xmlns:sodipodi="http://sodipodi.sourceforge.net/DTD/sodipodi-0.dtd"
   xmlns:inkscape="http://www.inkscape.org/namespaces/inkscape"
   data-name="Layer 1"
   viewBox="0 0 100 125"
   x="0px"
   y="0px"
   version="1.1"
   id="svg4499"
   sodipodi:docname="mascaras_Teatro.svg"
   inkscape:version="0.92.1 r15371">
  <metadata
     id="metadata4505">
    <rdf:RDF>
      <cc:Work
         rdf:about="">
        <dc:format>image/svg+xml</dc:format>
        <dc:type
           rdf:resource="http://purl.org/dc/dcmitype/StillImage" />
      </cc:Work>
    </rdf:RDF>
  </metadata>
  <defs
     id="defs4503" />
  <sodipodi:namedview
     pagecolor="#ffffff"
     bordercolor="#666666"
     borderopacity="1"
     objecttolerance="10"
     gridtolerance="10"
     guidetolerance="10"
     inkscape:pageopacity="0"
     inkscape:pageshadow="2"
     inkscape:window-width="1366"
     inkscape:window-height="705"
     id="namedview4501"
     showgrid="false"
     inkscape:zoom="4.288"
     inkscape:cx="50"
     inkscape:cy="71.828358"
     inkscape:window-x="-8"
     inkscape:window-y="-8"
     inkscape:window-maximized="1"
     inkscape:current-layer="svg4499" />
  <title
     id="title4485">Artboard 21</title>
  <path
     d="M52.38,31.21A5,5,0,0,0,46,36v2l-.18.06c-3.5,1.24-6,3.18-5.6,4.32S43,43.5,46,42.67V61.22A20.78,20.78,0,0,0,66.78,82h.43A20.78,20.78,0,0,0,88,61.22V35.88a5,5,0,0,0-6.31-4.82A54.27,54.27,0,0,1,52.38,31.21ZM50.64,48.09c.4-1.14,3.54-1.06,7,.16s5.94,3.14,5.54,4.28-3.54,1.06-7-.16S50.23,49.23,50.64,48.09ZM66.67,74c-7.12,0-12.89-5-12.89-7s5.77,1.83,12.89,1.83S79.56,65.11,79.56,67,73.79,74,66.67,74Zm9-25.77c3.46-1.23,6.6-1.3,7-.16s-2.08,3.05-5.54,4.28-6.6,1.3-7,.16S72.24,49.48,75.7,48.25Z"
     id="path4487" />
  <path
     d="M36.78,73.78a2,2,0,0,0,1.89-2.67,2.08,2.08,0,0,0-2-1.33A18.81,18.81,0,0,1,18,51V26.42a3.08,3.08,0,0,1,.61-1.92,3,3,0,0,1,3.18-1.06,55.93,55.93,0,0,0,30.05-.15,2.91,2.91,0,0,1,2.54.51,3,3,0,0,1,1.19,2.39,2,2,0,0,0,1.75,2,2,2,0,0,0,2.25-2,7,7,0,0,0-2.76-5.58,6.88,6.88,0,0,0-6-1.19,52,52,0,0,1-27.69.22,7.25,7.25,0,0,0-5,.31A7,7,0,0,0,14,26.33V51A22.81,22.81,0,0,0,36.78,73.78Z"
     id="path4489" />
  <ellipse
     cx="26.91"
     cy="40.39"
     rx="2.18"
     ry="6.65"
     transform="translate(-20.16 52.27) rotate(-70.49)"
     id="ellipse4491" />
  <path
     d="M36.67,59.51a19.13,19.13,0,0,1,2.82.22,2.06,2.06,0,0,0,.87-4,13.44,13.44,0,0,0-3.69-.53c-6,0-10.83,4.24-10.83,5.87S30.69,59.51,36.67,59.51Z"
     id="path4493" />
</svg>
