<?xml version="1.0" encoding="UTF-8" standalone="no"?>
<svg
   xmlns:dc="http://purl.org/dc/elements/1.1/"
   xmlns:cc="http://creativecommons.org/ns#"
   xmlns:rdf="http://www.w3.org/1999/02/22-rdf-syntax-ns#"
   xmlns:svg="http://www.w3.org/2000/svg"
   xmlns="http://www.w3.org/2000/svg"
   xmlns:sodipodi="http://sodipodi.sourceforge.net/DTD/sodipodi-0.dtd"
   xmlns:inkscape="http://www.inkscape.org/namespaces/inkscape"
   viewBox="0 0 512 512"
   version="1.1"
   id="svg4"
   sodipodi:docname="mascaras_Teatro2.svg"
   inkscape:version="0.92.1 r15371">
  <metadata
     id="metadata10">
    <rdf:RDF>
      <cc:Work
         rdf:about="">
        <dc:format>image/svg+xml</dc:format>
        <dc:type
           rdf:resource="http://purl.org/dc/dcmitype/StillImage" />
        <dc:title></dc:title>
      </cc:Work>
    </rdf:RDF>
  </metadata>
  <defs
     id="defs8" />
  <sodipodi:namedview
     pagecolor="#ffffff"
     bordercolor="#666666"
     borderopacity="1"
     objecttolerance="10"
     gridtolerance="10"
     guidetolerance="10"
     inkscape:pageopacity="0"
     inkscape:pageshadow="2"
     inkscape:window-width="1916"
     inkscape:window-height="1005"
     id="namedview6"
     showgrid="false"
     inkscape:zoom="0.98"
     inkscape:cx="190.92118"
     inkscape:cy="256"
     inkscape:window-x="0"
     inkscape:window-y="54"
     inkscape:window-maximized="0"
     inkscape:current-layer="svg4" />
  <g
     transform="matrix(26.314949,0,0,28.749972,41.916194,29.148204)"
     id="g20">
    <path
       style="stroke-width:0.20476073"
       inkscape:connector-curvature="0"
       id="path4487"
       d="M 8.373825,3.7438947 A 0.98597716,1.0630815 0 0 0 7.1157181,4.7623272 v 0.4252323 l -0.035495,0.012757 C 6.3900399,5.4639603 5.8970512,5.8764363 5.975929,6.1188189 6.054808,6.3612017 6.5241325,6.3569492 7.1157188,6.1804738 v 3.9440342 a 4.0977209,4.4181669 0 0 0 4.0977212,4.418166 h 0.0848 a 4.0977209,4.4181669 0 0 0 4.09969,-4.418166 V 4.7368108 A 0.98597716,1.0630815 0 0 0 14.153624,3.7119995 10.701796,11.538687 0 0 1 8.3738256,3.7438882 Z M 8.0307051,7.3328585 C 8.1095831,7.0904758 8.7287766,7.1074852 9.411073,7.3668775 10.093369,7.6262687 10.582413,8.0344924 10.503535,8.276875 10.424657,8.5192576 9.8054632,8.5022482 9.1231672,8.242856 8.4408716,7.9834639 7.9498544,7.5752411 8.0307051,7.3328585 Z m 3.1610429,5.5088895 c -1.4040319,0 -2.5418499,-1.063082 -2.5418499,-1.488315 0,-0.425232 1.137818,0.389087 2.5418499,0.389087 1.40403,0 2.541849,-0.790932 2.541849,-0.389087 0,0.401844 -1.137819,1.488315 -2.541849,1.488315 z m 1.774758,-5.4791231 c 0.682297,-0.2615183 1.301491,-0.2764015 1.380369,-0.034019 0.07888,0.2423827 -0.410167,0.6484794 -1.092463,0.9099976 -0.682297,0.2615183 -1.301491,0.2764015 -1.380368,0.034019 -0.07888,-0.2423826 0.416082,-0.6442279 1.098378,-0.9057452 z" />
    <path
       style="stroke-width:0.20476073"
       inkscape:connector-curvature="0"
       id="path4489"
       d="M 5.297576,12.794972 A 0.39439085,0.42523261 0 0 0 5.6702755,12.227286 0.4101665,0.44224192 0 0 0 5.2758845,11.944506 3.709246,3.9993128 0 0 1 1.5942459,7.9515714 V 2.7254627 A 0.60736192,0.65485824 0 0 1 1.7145351,2.317239 0.59158629,0.63784892 0 0 1 2.3416164,2.0918658 11.029141,11.89163 0 0 0 8.267339,2.0599771 0.57383868,0.61871347 0 0 1 8.7682158,2.1684113 0.59158629,0.63784892 0 0 1 9.0028783,2.6765646 0.39439085,0.42523261 0 0 0 9.3479701,3.101797 0.39439085,0.42523261 0 0 0 9.7916598,2.6765646 1.380368,1.4883142 0 0 0 9.2474001,1.4901656 1.3567045,1.4628002 0 0 0 8.0642284,1.2371519 10.254162,11.056048 0 0 1 2.6038869,1.2839279 1.4296668,1.5414682 0 0 0 1.6179096,1.3498434 1.380368,1.4883142 0 0 0 0.80546413,2.7063352 V 7.9515793 A 4.4980279,4.8497779 0 0 0 5.297576,12.79498 Z" />
    <ellipse
       style="stroke-width:0.2048759"
       id="ellipse4491"
       transform="matrix(0.31219223,-0.95001895,0.93415468,0.35686837,0,0)"
       ry="1.3231814"
       rx="0.45987576"
       cy="4.9655442"
       cx="-4.1310306" />
    <path
       style="stroke-width:0.20476073"
       inkscape:connector-curvature="0"
       id="path4493"
       d="M 5.2758845,9.7609367 A 3.7723485,4.06735 0 0 1 5.8319761,9.8077121 0.40622258,0.4379896 0 0 0 6.0035357,8.9572467 2.6503066,2.8575632 0 0 0 5.2758845,8.8445601 c -1.1831727,0 -2.135626,0.9014923 -2.135626,1.2480589 0,0.346563 0.9563977,-0.3316834 2.135626,-0.3316823 z" />
  </g>
</svg>
